<svg aria-hidden="true" style="position: absolute; width: 0; height: 0; overflow: hidden;"
   version="1.1" xmlns="http://www.w3.org/2000/svg">
   <defs>

      <symbol id="icon-burgerMenu" viewBox="0 0 32 32">
         <path stroke-linejoin="round" stroke-linecap="round" stroke-miterlimit="4"
            stroke-width="2.6667" d="M4 16h24"></path>
         <path stroke-linejoin="round" stroke-linecap="round" stroke-miterlimit="4"
            stroke-width="2.6667" d="M4 8h24"></path>
         <path stroke-linejoin="round" stroke-linecap="round" stroke-miterlimit="4"
            stroke-width="2.6667" d="M4 24h24"></path>
      </symbol>

      <symbol id="icon-close" viewBox="0 0 31 32">
         <path stroke-linejoin="round" stroke-linecap="round" stroke-miterlimit="4"
            stroke-width="2.56" d="M23.040 8.32l-15.36 15.36"></path>
         <path stroke-linejoin="round" stroke-linecap="round" stroke-miterlimit="4"
            stroke-width="2.56" d="M7.68 8.32l15.36 15.36"></path>
      </symbol>

      <symbol id="icon-user" viewBox="0 0 32 32">
         <path stroke-linejoin="round" stroke-linecap="round" stroke-miterlimit="4"
            stroke-width="2.88" d="M21.333 24l2.667 2.667 5.333-5.333"></path>
         <path stroke-linejoin="round" stroke-linecap="round" stroke-miterlimit="4"
            stroke-width="2.88"
            d="M16 20.667h-6c-0.867 0-1.3 0-1.665 0.042-2.955 0.34-5.287 2.671-5.627 5.627-0.042 0.365-0.042 0.798-0.042 1.665v0"></path>
         <path stroke-linejoin="round" stroke-linecap="round" stroke-miterlimit="4"
            stroke-width="2.88"
            d="M13.333 16c3.314 0 6-2.686 6-6s-2.686-6-6-6c-3.314 0-6 2.686-6 6s2.686 6 6 6z"></path>
      </symbol>

      <symbol id="icon-calendar" viewBox="0 0 32 32">
         <path stroke-linejoin="round" stroke-linecap="round" stroke-miterlimit="4"
            stroke-width="2.88"
            d="M28 13.333h-24M28 16.667v-4.933c0-2.24 0-3.36-0.436-4.216-0.384-0.753-0.995-1.365-1.748-1.748-0.856-0.436-1.976-0.436-4.216-0.436h-11.2c-2.24 0-3.36 0-4.216 0.436-0.753 0.383-1.365 0.995-1.748 1.748-0.436 0.856-0.436 1.976-0.436 4.216v11.2c0 2.24 0 3.36 0.436 4.216 0.383 0.753 0.995 1.365 1.748 1.748 0.856 0.436 1.976 0.436 4.216 0.436h5.6M21.333 2.667v5.333M10.667 2.667v5.333M19.333 25.333l2.667 2.667 6-6"></path>
      </symbol>

      <symbol id="icon-filter" viewBox="0 0 24 24">
         <path
            fill-rule="evenodd"
            clip-rule="evenodd"
            d="M3 3H10V10H3V3Z"
            stroke-width="2"
            stroke-linecap="round"
            stroke-linejoin="round"
         />
         <path
            fill-rule="evenodd"
            clip-rule="evenodd"
            d="M14 3H21V10H14V3Z"
            stroke-width="2"
            stroke-linecap="round"
            stroke-linejoin="round"
         />
         <path
            fill-rule="evenodd"
            clip-rule="evenodd"
            d="M14 14H21V21H14V14Z"
            stroke-width="2"
            stroke-linecap="round"
            stroke-linejoin="round"
         />
         <path
            fill-rule="evenodd"
            clip-rule="evenodd"
            d="M3 14H10V21H3V14Z"
            stroke-width="2"
            stroke-linecap="round"
            stroke-linejoin="round"
         />
      </symbol>

      <symbol id="icon-logOut" viewBox="0 0 18 18">
         <path
            d="M12.3333 13.1667L16.5 9M16.5 9L12.3333 4.83333M16.5 9H6.5M6.5 1.5H5.5C4.09987 1.5 3.3998 1.5 2.86502 1.77248C2.39462 2.01217 2.01217 2.39462 1.77248 2.86502C1.5 3.3998 1.5 4.09987 1.5 5.5V12.5C1.5 13.9001 1.5 14.6002 1.77248 15.135C2.01217 15.6054 2.39462 15.9878 2.86502 16.2275C3.3998 16.5 4.09987 16.5 5.5 16.5H6.5"
            stroke="white" stroke-width="2" stroke-linecap="round" stroke-linejoin="round" />

      </symbol>
   </defs>
</svg>