<svg aria-hidden="true" style="position: absolute; width: 0; height: 0; overflow: hidden;"
   version="1.1" xmlns="http://www.w3.org/2000/svg" xmlns:xlink="http://www.w3.org/1999/xlink">
   <defs>
      <symbol id="icon-log-in" viewBox="0 0 32 32">
         <path stroke-linejoin="round" stroke-linecap="round" stroke-miterlimit="4"
            stroke-width="3.5556"
            d="M20.694 1.917h1.878c2.629 0 3.944 0 4.948 0.512 0.883 0.45 1.601 1.168 2.051 2.051 0.512 1.004 0.512 2.319 0.512 4.948v13.144c0 2.629 0 3.944-0.512 4.948-0.45 0.883-1.168 1.601-2.051 2.051-1.004 0.512-2.319 0.512-4.948 0.512h-1.878M12.87 8.176l7.824 7.824M20.694 16l-7.824 7.824M20.694 16h-18.778"></path>
      </symbol>

      <symbol id="icon-done" viewBox="0 0 32 32">
         <path
            d="M14.133 18.4l-2.9-2.9c-0.244-0.244-0.55-0.361-0.916-0.349s-0.673 0.138-0.917 0.383-0.367 0.556-0.367 0.933c0 0.378 0.122 0.689 0.367 0.933l3.8 3.8c0.244 0.244 0.556 0.367 0.933 0.367s0.689-0.122 0.933-0.367l7.567-7.567c0.244-0.244 0.361-0.55 0.351-0.917s-0.14-0.672-0.384-0.916-0.556-0.367-0.933-0.367c-0.378 0-0.689 0.122-0.933 0.367l-6.6 6.6zM16 29.333c-1.844 0-3.578-0.35-5.2-1.051s-3.033-1.649-4.233-2.849-2.15-2.611-2.849-4.233c-0.7-1.622-1.051-3.356-1.051-5.2s0.35-3.578 1.051-5.2c0.7-1.622 1.649-3.033 2.849-4.233s2.611-2.15 4.233-2.851c1.622-0.7 3.356-1.049 5.2-1.049s3.578 0.35 5.2 1.049c1.622 0.7 3.033 1.651 4.233 2.851s2.15 2.611 2.849 4.233c0.7 1.622 1.051 3.356 1.051 5.2s-0.35 3.578-1.051 5.2c-0.7 1.622-1.649 3.033-2.849 4.233s-2.611 2.15-4.233 2.849c-1.622 0.7-3.356 1.051-5.2 1.051zM16 26.667c2.956 0 5.472-1.039 7.551-3.116s3.116-4.595 3.116-7.551c0-2.956-1.039-5.472-3.116-7.551s-4.595-3.116-7.551-3.116c-2.956 0-5.472 1.039-7.549 3.116s-3.117 4.595-3.117 7.551c0 2.956 1.039 5.472 3.117 7.551s4.594 3.116 7.549 3.116z"></path>
      </symbol>

      <symbol id="icon-error" viewBox="0 0 32 32">
         <path
            d="M14.667 20h2.667v2.667h-2.667v-2.667zM14.667 9.333h2.667v8h-2.667v-8zM15.987 2.667c-7.36 0-13.32 5.973-13.32 13.333s5.96 13.333 13.32 13.333c7.373 0 13.347-5.973 13.347-13.333s-5.973-13.333-13.347-13.333zM16 26.667c-5.893 0-10.667-4.773-10.667-10.667s4.773-10.667 10.667-10.667c5.893 0 10.667 4.773 10.667 10.667s-4.773 10.667-10.667 10.667z"></path>
      </symbol>

      <symbol id="icon-eye" viewBox="0 0 32 32">
         <path
            d="M16 6c-6.979 0-13.028 4.064-16 10 2.972 5.936 9.021 10 16 10s13.027-4.064 16-10c-2.972-5.936-9.021-10-16-10zM23.889 11.303c1.88 1.199 3.473 2.805 4.67 4.697-1.197 1.891-2.79 3.498-4.67 4.697-2.362 1.507-5.090 2.303-7.889 2.303s-5.527-0.796-7.889-2.303c-1.88-1.199-3.473-2.805-4.67-4.697 1.197-1.891 2.79-3.498 4.67-4.697 0.122-0.078 0.246-0.154 0.371-0.228-0.311 0.854-0.482 1.776-0.482 2.737 0 4.418 3.582 8 8 8s8-3.582 8-8c0-0.962-0.17-1.883-0.482-2.737 0.124 0.074 0.248 0.15 0.371 0.228v0zM16 13c0 1.657-1.343 3-3 3s-3-1.343-3-3 1.343-3 3-3 3 1.343 3 3z"></path>
      </symbol>

      <symbol id="icon-eye-blocked" viewBox="0 0 32 32">
         <path
            d="M29.561 0.439c-0.586-0.586-1.535-0.586-2.121 0l-6.318 6.318c-1.623-0.492-3.342-0.757-5.122-0.757-6.979 0-13.028 4.064-16 10 1.285 2.566 3.145 4.782 5.407 6.472l-4.968 4.968c-0.586 0.586-0.586 1.535 0 2.121 0.293 0.293 0.677 0.439 1.061 0.439s0.768-0.146 1.061-0.439l27-27c0.586-0.586 0.586-1.536 0-2.121zM13 10c1.32 0 2.44 0.853 2.841 2.037l-3.804 3.804c-1.184-0.401-2.037-1.521-2.037-2.841 0-1.657 1.343-3 3-3zM3.441 16c1.197-1.891 2.79-3.498 4.67-4.697 0.122-0.078 0.246-0.154 0.371-0.228-0.311 0.854-0.482 1.776-0.482 2.737 0 1.715 0.54 3.304 1.459 4.607l-1.904 1.904c-1.639-1.151-3.038-2.621-4.114-4.323z"></path>
         <path
            d="M24 13.813c0-0.849-0.133-1.667-0.378-2.434l-10.056 10.056c0.768 0.245 1.586 0.378 2.435 0.378 4.418 0 8-3.582 8-8z"></path>
         <path
            d="M25.938 9.062l-2.168 2.168c0.040 0.025 0.079 0.049 0.118 0.074 1.88 1.199 3.473 2.805 4.67 4.697-1.197 1.891-2.79 3.498-4.67 4.697-2.362 1.507-5.090 2.303-7.889 2.303-1.208 0-2.403-0.149-3.561-0.439l-2.403 2.403c1.866 0.671 3.873 1.036 5.964 1.036 6.978 0 13.027-4.064 16-10-1.407-2.81-3.504-5.2-6.062-6.938z"></path>
      </symbol>
   </defs>
</svg>