<svg aria-hidden="true" style="position: absolute; width: 0; height: 0; overflow: hidden;"
   version="1.1" xmlns="http://www.w3.org/2000/svg" xmlns:xlink="http://www.w3.org/1999/xlink">
   <defs>
      <symbol id="task-todo" viewBox="0 0 32 32">
         <path
            d="M12 20l4-2 14-14-2-2-14 14-2 4zM9.041 27.097c-0.989-2.085-2.052-3.149-4.137-4.137l3.097-8.525 4-2.435 12-12h-6l-12 12-6 20 20-6 12-12v-6l-12 12-2.435 4z"></path>
      </symbol>

      <symbol id="task-inprogress" viewBox="0 0 32 32">
         <path
            d="M11.366 22.564l1.291-1.807-1.414-1.414-1.807 1.291c-0.335-0.187-0.694-0.337-1.071-0.444l-0.365-2.19h-2l-0.365 2.19c-0.377 0.107-0.736 0.256-1.071 0.444l-1.807-1.291-1.414 1.414 1.291 1.807c-0.187 0.335-0.337 0.694-0.443 1.071l-2.19 0.365v2l2.19 0.365c0.107 0.377 0.256 0.736 0.444 1.071l-1.291 1.807 1.414 1.414 1.807-1.291c0.335 0.187 0.694 0.337 1.071 0.444l0.365 2.19h2l0.365-2.19c0.377-0.107 0.736-0.256 1.071-0.444l1.807 1.291 1.414-1.414-1.291-1.807c0.187-0.335 0.337-0.694 0.444-1.071l2.19-0.365v-2l-2.19-0.365c-0.107-0.377-0.256-0.736-0.444-1.071zM7 27c-1.105 0-2-0.895-2-2s0.895-2 2-2 2 0.895 2 2-0.895 2-2 2zM32 12v-2l-2.106-0.383c-0.039-0.251-0.088-0.499-0.148-0.743l1.799-1.159-0.765-1.848-2.092 0.452c-0.132-0.216-0.273-0.426-0.422-0.629l1.219-1.761-1.414-1.414-1.761 1.219c-0.203-0.149-0.413-0.29-0.629-0.422l0.452-2.092-1.848-0.765-1.159 1.799c-0.244-0.059-0.492-0.109-0.743-0.148l-0.383-2.106h-2l-0.383 2.106c-0.251 0.039-0.499 0.088-0.743 0.148l-1.159-1.799-1.848 0.765 0.452 2.092c-0.216 0.132-0.426 0.273-0.629 0.422l-1.761-1.219-1.414 1.414 1.219 1.761c-0.149 0.203-0.29 0.413-0.422 0.629l-2.092-0.452-0.765 1.848 1.799 1.159c-0.059 0.244-0.109 0.492-0.148 0.743l-2.106 0.383v2l2.106 0.383c0.039 0.251 0.088 0.499 0.148 0.743l-1.799 1.159 0.765 1.848 2.092-0.452c0.132 0.216 0.273 0.426 0.422 0.629l-1.219 1.761 1.414 1.414 1.761-1.219c0.203 0.149 0.413 0.29 0.629 0.422l-0.452 2.092 1.848 0.765 1.159-1.799c0.244 0.059 0.492 0.109 0.743 0.148l0.383 2.106h2l0.383-2.106c0.251-0.039 0.499-0.088 0.743-0.148l1.159 1.799 1.848-0.765-0.452-2.092c0.216-0.132 0.426-0.273 0.629-0.422l1.761 1.219 1.414-1.414-1.219-1.761c0.149-0.203 0.29-0.413 0.422-0.629l2.092 0.452 0.765-1.848-1.799-1.159c0.059-0.244 0.109-0.492 0.148-0.743l2.106-0.383zM21 15.35c-2.402 0-4.35-1.948-4.35-4.35s1.948-4.35 4.35-4.35 4.35 1.948 4.35 4.35c0 2.402-1.948 4.35-4.35 4.35z"></path>
      </symbol>

      <symbol id="task-done" viewBox="0 0 32 32">
         <path
            d="M29 4h-9c0-2.209-1.791-4-4-4s-4 1.791-4 4h-9c-0.552 0-1 0.448-1 1v26c0 0.552 0.448 1 1 1h26c0.552 0 1-0.448 1-1v-26c0-0.552-0.448-1-1-1zM16 2c1.105 0 2 0.895 2 2s-0.895 2-2 2c-1.105 0-2-0.895-2-2s0.895-2 2-2zM28 30h-24v-24h4v3c0 0.552 0.448 1 1 1h14c0.552 0 1-0.448 1-1v-3h4v24z"></path>
         <path d="M14 26.828l-6.414-7.414 1.828-1.828 4.586 3.586 8.586-7.586 1.829 1.828z"></path>
      </symbol>

      <symbol id="task-plus" viewBox="0 0 32 32">
         <path stroke-linejoin="round" stroke-linecap="round" stroke-miterlimit="4" stroke-width="4"
            d="M16 2v28M2 16h28"></path>
      </symbol>

      <symbol id="task-calendar" viewBox="0 0 32 32">
         <path
            d="M10 12h4v4h-4zM16 12h4v4h-4zM22 12h4v4h-4zM4 24h4v4h-4zM10 24h4v4h-4zM16 24h4v4h-4zM10 18h4v4h-4zM16 18h4v4h-4zM22 18h4v4h-4zM4 18h4v4h-4zM26 0v2h-4v-2h-14v2h-4v-2h-4v32h30v-32h-4zM28 30h-26v-22h26v22z"></path>
      </symbol>

      <symbol id="task-alarm" viewBox="0 0 32 32">
         <path
            d="M16 4c-7.732 0-14 6.268-14 14s6.268 14 14 14 14-6.268 14-14-6.268-14-14-14zM16 29.25c-6.213 0-11.25-5.037-11.25-11.25s5.037-11.25 11.25-11.25c6.213 0 11.25 5.037 11.25 11.25s-5.037 11.25-11.25 11.25zM29.212 8.974c0.501-0.877 0.788-1.892 0.788-2.974 0-3.314-2.686-6-6-6-1.932 0-3.65 0.913-4.747 2.331 4.121 0.851 7.663 3.287 9.96 6.643v0zM12.748 2.331c-1.097-1.418-2.816-2.331-4.748-2.331-3.314 0-6 2.686-6 6 0 1.082 0.287 2.098 0.788 2.974 2.297-3.356 5.838-5.792 9.96-6.643z"
            stroke-width="1.3" stroke-linecap="round" stroke-linejoin="round"></path>

         <path d="M16 18v-8h-2v10h8v-2z" stroke-width="1.3" stroke-linecap="round"
            stroke-linejoin="round"></path>
      </symbol>

      <symbol id="task-arrow" viewBox="0 0 16 16" fill="none">
         <g clip-path="url(#clip0_362_1001)">
            <path
               d="M2.22534 4.66665C3.37804 2.67398 5.53252 1.33331 8.00013 1.33331C11.682 1.33331 14.6668 4.31808 14.6668 7.99998C14.6668 11.6819 11.682 14.6666 8.00013 14.6666C5.53252 14.6666 3.37804 13.326 2.22534 11.3333"
               stroke-width="1.3" stroke-linecap="round" stroke-linejoin="round" />
            <path d="M8 10.6666L10.6667 7.99998L8 5.33331" stroke-width="1.3" stroke-linecap="round"
               stroke-linejoin="round" />
            <path d="M1.33325 8L10.6666 8" stroke-width="1.3" stroke-linecap="round"
               stroke-linejoin="round" />
         </g>
         <defs>
            <clipPath id="clip0_362_1001">
               <rect width="16" height="16" fill="none" />
            </clipPath>
         </defs>
      </symbol>

      <symbol id="task-pencil" viewBox="0 0 16 16" fill="none">
         <path
            d="M1.66663 14.3333L5.36614 12.9104C5.60277 12.8194 5.72108 12.7739 5.83177 12.7145C5.93009 12.6617 6.02383 12.6008 6.11199 12.5324C6.21124 12.4554 6.30088 12.3657 6.48015 12.1865L14 4.66665C14.7364 3.93027 14.7364 2.73636 14 1.99998C13.2636 1.2636 12.0697 1.2636 11.3333 1.99998L3.81348 9.51979C3.63421 9.69906 3.54457 9.7887 3.46755 9.88795C3.39914 9.97611 3.33823 10.0698 3.28545 10.1682C3.22603 10.2789 3.18053 10.3972 3.08951 10.6338L1.66663 14.3333ZM1.66663 14.3333L3.03871 10.766C3.13689 10.5107 3.18598 10.383 3.27019 10.3246C3.34377 10.2735 3.43483 10.2542 3.52282 10.271C3.62351 10.2902 3.72021 10.3869 3.91361 10.5803L5.41968 12.0863C5.61307 12.2797 5.70977 12.3764 5.729 12.4771C5.74581 12.5651 5.72648 12.6562 5.67539 12.7298C5.61692 12.814 5.48929 12.8631 5.23401 12.9613L1.66663 14.3333Z"
            stroke-width="1.3" stroke-linecap="round" stroke-linejoin="round" />
      </symbol>

      <symbol id="task-trash" viewBox="0 0 16 16" fill="none">
         <path d="M6 2H10" stroke-width="1.3" stroke-linecap="round"
            stroke-linejoin="round" />
         <path d="M2 4H14" stroke-width="1.3" stroke-linecap="round"
            stroke-linejoin="round" />
         <path
            d="M3.33331 4L3.7339 10.0089C3.80828 11.1245 3.84547 11.6823 4.02777 12.1304C4.35876 12.9441 5.0297 13.5718 5.86355 13.8479C6.32283 14 6.88188 14 7.99998 14V14C9.11808 14 9.67713 14 10.1364 13.8479C10.9703 13.5718 11.6412 12.9441 11.9722 12.1304C12.1545 11.6823 12.1917 11.1245 12.2661 10.0089L12.6666 4"
            stroke-width="1.3" stroke-linecap="round" stroke-linejoin="round" />
      </symbol>

      <symbol id="task-edit" viewBox="0 0 17 17" fill="none">
         <path
            d="M1.375 16.125L5.53695 14.5242C5.80316 14.4218 5.93626 14.3707 6.06079 14.3038C6.1714 14.2444 6.27685 14.1759 6.37603 14.0989C6.48769 14.0123 6.58853 13.9115 6.79021 13.7098L15.25 5.24998C16.0784 4.42156 16.0784 3.07841 15.25 2.24998C14.4216 1.42156 13.0784 1.42156 12.25 2.24998L3.79021 10.7098C3.58853 10.9115 3.48769 11.0123 3.40104 11.124C3.32408 11.2231 3.25555 11.3286 3.19618 11.4392C3.12933 11.5637 3.07814 11.6968 2.97575 11.963L1.375 16.125ZM1.375 16.125L2.91859 12.1117C3.02905 11.8245 3.08428 11.6809 3.17901 11.6151C3.26179 11.5577 3.36423 11.5359 3.46322 11.5548C3.5765 11.5765 3.68529 11.6853 3.90286 11.9028L5.59718 13.5971C5.81475 13.8147 5.92354 13.9235 5.94517 14.0368C5.96408 14.1358 5.94234 14.2382 5.88486 14.321C5.81909 14.4157 5.67549 14.471 5.3883 14.5814L1.375 16.125Z"
            stroke-width="1.3" stroke-linecap="round" stroke-linejoin="round" />
      </symbol>

      <symbol id="task-close" viewBox="0 0 32 32" fill="none">
         <path
            stroke-width="3"
            strokeLinejoin="round"
            strokeLinecap="round"
            strokeMiterlimit="4"
            strokeWidth="3.2"
            d="M24 8l-16 16"
         ></path>
         <path
            stroke-width="3"
            strokeLinejoin="round"
            strokeLinecap="round"
            strokeMiterlimit="4"
            strokeWidth="3.2"
            d="M8 8l16 16"
         ></path>
      </symbol>

      <symbol id="task-done-small" viewBox="0 0 32 32">
         <path d="M27 4l-15 15-7-7-5 5 12 12 20-20z"></path>
      </symbol>

      <symbol id="task-inprogress-small" viewBox="0 0 32 32">
         <path
            d="M29.181 19.070c-1.679-2.908-0.669-6.634 2.255-8.328l-3.145-5.447c-0.898 0.527-1.943 0.829-3.058 0.829-3.361 0-6.085-2.742-6.085-6.125h-6.289c0.008 1.044-0.252 2.103-0.811 3.070-1.679 2.908-5.411 3.897-8.339 2.211l-3.144 5.447c0.905 0.515 1.689 1.268 2.246 2.234 1.676 2.903 0.672 6.623-2.241 8.319l3.145 5.447c0.895-0.522 1.935-0.82 3.044-0.82 3.35 0 6.067 2.725 6.084 6.092h6.289c-0.003-1.034 0.259-2.080 0.811-3.038 1.676-2.903 5.399-3.894 8.325-2.219l3.145-5.447c-0.899-0.515-1.678-1.266-2.232-2.226zM16 22.479c-3.578 0-6.479-2.901-6.479-6.479s2.901-6.479 6.479-6.479c3.578 0 6.479 2.901 6.479 6.479s-2.901 6.479-6.479 6.479z"></path>
      </symbol>

   </defs>
</svg>